# xmcd CD database file
#
# Track frame offsets:
#	150
#	14555
#	24365
#	43305
#	53425
#	68127
#	80470
#	92205
#	105505
#	119287
#	132915
#	142552
#	159862
#	175255
#	193950
#	208295
#	222112
#	236822
#
# Disc length: 3257 seconds
#
# Revision: 0
# Processed by: cddbd v1.5.1PL0 Copyright (c) Steve Scherf et al.
# Submitted via: CDex 1.51
#
DISCID=f70cb712
DTITLE=FPDS - Polski Jazz
DYEAR=2000
DGENRE=Jazz
TTITLE0=To Jazz
TTITLE1=W nowym stylu
TTITLE2=Noc we dwoje
TTITLE3=Na spacerze spotkala nas
TTITLE4=Bezsennosc
TTITLE5=Moze by nad morzem
TTITLE6=Ten ot ktorego chodzi
TTITLE7=Pierwszy dzien wiosny
TTITLE8=Betty Babylon
TTITLE9=Spacer brzegiem morza
TTITLE10=Krok niedzwiedzia
TTITLE11=Blues-ka
TTITLE12=Cala jestes w skowronkach
TTITLE13=Stary most
TTITLE14=Zgubiony Slad
TTITLE15=Ballada Nahornego
TTITLE16=Bossa Nova Nahornego
TTITLE17=Material na czlowieka
EXTD=
EXTT0=
EXTT1=
EXTT2=
EXTT3=
EXTT4=
EXTT5=
EXTT6=
EXTT7=
EXTT8=
EXTT9=
EXTT10=
EXTT11=
EXTT12=
EXTT13=
EXTT14=
EXTT15=
EXTT16=
EXTT17=
PLAYORDER=
